# Made in Blockbench 4.7.2
mtllib connector_io.mtl

o connector
v 0.40625 0.75 0.59375
v 0.40625 0.6875 0.59375
v 0.59375 0.6875 0.59375
v 0.59375 0.75 0.59375
v 0.59375 0.75 0.40625
v 0.59375 0.6875 0.40625
v 0.40625 0.6875 0.40625
v 0.40625 0.75 0.40625
v 0.375 0.6875 0.625
v 0.375 0.25 0.625
v 0.625 0.25 0.625
v 0.625 0.6875 0.625
v 0.625 0.6875 0.375
v 0.625 0.25 0.375
v 0.375 0.25 0.375
v 0.375 0.6875 0.375
v 0.3125 0.4375 0.6875
v 0.3125 0.3125 0.6875
v 0.6875 0.3125 0.6875
v 0.6875 0.4375 0.6875
v 0.6875 0.4375 0.3125
v 0.6875 0.3125 0.3125
v 0.3125 0.3125 0.3125
v 0.3125 0.4375 0.3125
v 0.3125 0.25 0.6875
v 0.3125 0 0.6875
v 0.6875 0 0.6875
v 0.6875 0.25 0.6875
v 0.6875 0.25 0.3125
v 0.6875 0 0.3125
v 0.3125 0 0.3125
v 0.3125 0.25 0.3125
v 0.3125 0.625 0.6875
v 0.3125 0.5 0.6875
v 0.6875 0.5 0.6875
v 0.6875 0.625 0.6875
v 0.6875 0.625 0.3125
v 0.6875 0.5 0.3125
v 0.3125 0.5 0.3125
v 0.3125 0.625 0.3125
vt 0.4375 0.8125
vt 0.4375 0.75
vt 0.625 0.75
vt 0.625 0.8125
vt 0.8125 0.8125
vt 0.8125 0.75
vt 1 0.75
vt 1 0.8125
vt 0.4375 1
vt 0.4375 0.8125
vt 0.625 0.8125
vt 0.625 1
vt 0.8125 0.8125
vt 0.8125 1
vt 0.625 1
vt 0.625 0.8125
vt 0.8125 0.8125
vt 0.625 0.8125
vt 0.625 0.75
vt 0.8125 0.75
vt 0.4375 0.75
vt 0.4375 0.8125
vt 0.25 0.8125
vt 0.25 0.75
vt 0 0.75
vt 0 0.3125
vt 0.25 0.3125
vt 0.25 0.75
vt 0 0.75
vt 0 0.3125
vt 0.25 0.3125
vt 0.25 0.75
vt 0 1
vt 0 0.75
vt 0.25 0.75
vt 0.25 1
vt 0.25 0.75
vt 0.25 1
vt 0 1
vt 0 0.75
vt 0.25 0.75
vt 0 0.75
vt 0 0.3125
vt 0.25 0.3125
vt 0 0.75
vt 0 0.3125
vt 0.25 0.3125
vt 0.25 0.75
vt 0.625 0.375
vt 0.625 0.25
vt 1 0.25
vt 1 0.375
vt 0.625 0.375
vt 0.625 0.25
vt 1 0.25
vt 1 0.375
vt 0.625 0.75
vt 0.625 0.375
vt 1 0.375
vt 1 0.75
vt 1 0.375
vt 1 0.75
vt 0.625 0.75
vt 0.625 0.375
vt 1 0.375
vt 0.625 0.375
vt 0.625 0.25
vt 1 0.25
vt 0.625 0.375
vt 0.625 0.25
vt 1 0.25
vt 1 0.375
vt 0.25 0.375
vt 0.25 0.125
vt 0.625 0.125
vt 0.625 0.375
vt 0.25 0.375
vt 0.25 0.125
vt 0.625 0.125
vt 0.625 0.375
vt 0.25 0.75
vt 0.25 0.375
vt 0.625 0.375
vt 0.625 0.75
vt 0.625 0.375
vt 0.625 0.75
vt 0.25 0.75
vt 0.25 0.375
vt 0.625 0.375
vt 0.25 0.375
vt 0.25 0.125
vt 0.625 0.125
vt 0.25 0.375
vt 0.25 0.125
vt 0.625 0.125
vt 0.625 0.375
vt 0.625 0.375
vt 0.625 0.25
vt 1 0.25
vt 1 0.375
vt 0.625 0.375
vt 0.625 0.25
vt 1 0.25
vt 1 0.375
vt 0.625 0.75
vt 0.625 0.375
vt 1 0.375
vt 1 0.75
vt 1 0.375
vt 1 0.75
vt 0.625 0.75
vt 0.625 0.375
vt 1 0.375
vt 0.625 0.375
vt 0.625 0.25
vt 1 0.25
vt 0.625 0.375
vt 0.625 0.25
vt 1 0.25
vt 1 0.375
vn 0 0 1
vn 0 0 -1
vn 0 1 0
vn 0 -1 0
vn 1 0 0
vn -1 0 0
vn 0 0 1
vn 0 0 -1
vn 0 1 0
vn 0 -1 0
vn 1 0 0
vn -1 0 0
vn 0 0 1
vn 0 0 -1
vn 0 1 0
vn 0 -1 0
vn 1 0 0
vn -1 0 0
vn 0 0 1
vn 0 0 -1
vn 0 1 0
vn 0 -1 0
vn 1 0 0
vn -1 0 0
vn 0 0 1
vn 0 0 -1
vn 0 1 0
vn 0 -1 0
vn 1 0 0
vn -1 0 0
usemtl connector
f 1/1/1 2/2/1 3/3/1 4/4/1
f 5/5/2 6/6/2 7/7/2 8/8/2
f 8/9/3 1/10/3 4/11/3 5/12/3
f 2/13/4 7/14/4 6/15/4 3/16/4
f 5/17/5 4/18/5 3/19/5 6/20/5
f 2/21/6 1/22/6 8/23/6 7/24/6
f 9/25/7 10/26/7 11/27/7 12/28/7
f 13/29/8 14/30/8 15/31/8 16/32/8
f 16/33/9 9/34/9 12/35/9 13/36/9
f 10/37/10 15/38/10 14/39/10 11/40/10
f 13/41/11 12/42/11 11/43/11 14/44/11
f 16/45/12 15/46/12 10/47/12 9/48/12
f 17/49/13 18/50/13 19/51/13 20/52/13
f 21/53/14 22/54/14 23/55/14 24/56/14
f 24/57/15 17/58/15 20/59/15 21/60/15
f 18/61/16 23/62/16 22/63/16 19/64/16
f 21/65/17 20/66/17 19/67/17 22/68/17
f 24/69/18 23/70/18 18/71/18 17/72/18
f 25/73/19 26/74/19 27/75/19 28/76/19
f 29/77/20 30/78/20 31/79/20 32/80/20
f 32/81/21 25/82/21 28/83/21 29/84/21
f 26/85/22 31/86/22 30/87/22 27/88/22
f 29/89/23 28/90/23 27/91/23 30/92/23
f 32/93/24 31/94/24 26/95/24 25/96/24
f 33/97/25 34/98/25 35/99/25 36/100/25
f 37/101/26 38/102/26 39/103/26 40/104/26
f 40/105/27 33/106/27 36/107/27 37/108/27
f 34/109/28 39/110/28 38/111/28 35/112/28
f 37/113/29 36/114/29 35/115/29 38/116/29
f 40/117/30 39/118/30 34/119/30 33/120/30
o cube
v 0.71875 0.1875 0.71875
v 0.71875 0.1875 0.28125
v 0.71875 0.0625 0.71875
v 0.71875 0.0625 0.28125
v 0.28125 0.1875 0.28125
v 0.28125 0.1875 0.71875
v 0.28125 0.0625 0.28125
v 0.28125 0.0625 0.71875
vt 0 1
vt 0.4375 1
vt 0.4375 0.875
vt 0 0.875
vt 0 1
vt 0.4375 1
vt 0.4375 0.875
vt 0 0.875
vt 0 1
vt 0.4375 1
vt 0.4375 0.875
vt 0 0.875
vt 0 1
vt 0.4375 1
vt 0.4375 0.875
vt 0 0.875
vt 0 1
vt 0.4375 1
vt 0.4375 0.5625
vt 0 0.5625
vt 0 1
vt 0.4375 1
vt 0.4375 0.5625
vt 0 0.5625
vn 0 0 -1
vn 1 0 0
vn 0 0 1
vn -1 0 0
vn 0 1 0
vn 0 -1 0
usemtl io
f 44/124/31 47/123/31 45/122/31 42/121/31
f 43/128/32 44/127/32 42/126/32 41/125/32
f 48/132/33 43/131/33 41/130/33 46/129/33
f 47/136/34 48/135/34 46/134/34 45/133/34
f 46/140/35 41/139/35 42/138/35 45/137/35
f 47/144/36 44/143/36 43/142/36 48/141/36